<svg
  fill="none"
  height="40"
  viewBox="0 0 45 40"
  width="45"
  xmlns="http://www.w3.org/2000/svg"
>
  <g clip-path="url(#clip0_668_4417)">
    <path
      d="M22.1988 24.2327C24.5341 24.2327 26.4273 22.3376 26.4273 19.9999C26.4273 17.6622 24.5341 15.7671 22.1988 15.7671C19.8635 15.7671 17.9703 17.6622 17.9703 19.9999C17.9703 22.3376 19.8635 24.2327 22.1988 24.2327Z"
      fill="#149ECA"
    />
    <path
      d="M22.1989 29.5254C33.8755 29.5254 43.3413 25.2615 43.3413 20.0016C43.3413 14.7417 33.8755 10.4778 22.1989 10.4778C10.5223 10.4778 1.05652 14.7417 1.05652 20.0016C1.05652 25.2615 10.5223 29.5254 22.1989 29.5254Z"
      stroke="#149ECA"
      stroke-width="2.11639"
    />
    <path
      d="M13.9596 24.7643C19.798 34.8869 28.2198 40.9609 32.7703 38.331C37.3208 35.7011 36.2768 25.3631 30.4385 15.2405C24.6002 5.11786 16.1784 -0.956154 11.6279 1.67378C7.07737 4.30371 8.12133 14.6417 13.9596 24.7643Z"
      stroke="#149ECA"
      stroke-width="2.11639"
    />
    <path
      d="M13.9598 15.2396C8.12152 25.3622 7.07756 35.7002 11.6281 38.3301C16.1786 40.9601 24.6004 34.886 30.4387 24.7634C36.277 14.6408 37.321 4.30283 32.7705 1.6729C28.2199 -0.95703 19.7981 5.11699 13.9598 15.2396Z"
      stroke="#149ECA"
      stroke-width="2.11639"
    />
  </g>
  <defs>
    <clipPath id="clip0_668_4417">
      <rect fill="white" height="40.0001" width="44.399" />
    </clipPath>
  </defs>
</svg>
